<!-- Created with Inkscape (http://www.inkscape.org/) -->
<svg xmlns:dc="http://purl.org/dc/elements/1.1/" xmlns:cc="http://creativecommons.org/ns#" xmlns:rdf="http://www.w3.org/1999/02/22-rdf-syntax-ns#" xmlns:svg="http://www.w3.org/2000/svg" xmlns="http://www.w3.org/2000/svg" xmlns:sodipodi="http://sodipodi.sourceforge.net/DTD/sodipodi-0.dtd" xmlns:inkscape="http://www.inkscape.org/namespaces/inkscape" width="235.43999mm" height="120.05423mm" viewBox="0 0 235.43998 120.05423" version="1.1" id="svg8" inkscape:version="0.92.3 (2405546, 2018-03-11)" sodipodi:docname="NewYaminLogo.svg">
  <defs id="defs2">
    <clipPath id="clipPath888" clipPathUnits="userSpaceOnUse">
      <path inkscape:connector-curvature="0" id="path886" d="M 0,595.276 H 595.276 V 0 H 0 Z"/>
    </clipPath>
    <clipPath id="clipPath907" clipPathUnits="userSpaceOnUse">
      <path inkscape:connector-curvature="0" id="path905" d="m 0,101.282 h 584.74 v 462.78 H 0 Z"/>
    </clipPath>
    <clipPath id="clipPath921" clipPathUnits="userSpaceOnUse">
      <path inkscape:connector-curvature="0" id="path919" d="M 0,595.276 H 595.276 V 0 H 0 Z"/>
    </clipPath>
    <clipPath id="clipPath929" clipPathUnits="userSpaceOnUse">
      <path inkscape:connector-curvature="0" id="path927" d="M 191.669,503.401 H 305.092 V 368.842 H 191.669 Z"/>
    </clipPath>
    <clipPath id="clipPath945" clipPathUnits="userSpaceOnUse">
      <path inkscape:connector-curvature="0" id="path943" d="M 239.669,504.067 H 353.092 V 369.509 H 239.669 Z"/>
    </clipPath>
  </defs>
  <sodipodi:namedview id="base" pagecolor="#ffffff" bordercolor="#666666" borderopacity="1.0" inkscape:pageopacity="0.0" inkscape:pageshadow="2" inkscape:zoom="0.46779544" inkscape:cx="630.86862" inkscape:cy="1.4958954" inkscape:document-units="mm" inkscape:current-layer="layer1" showgrid="false" fit-margin-top="0" fit-margin-left="0" fit-margin-right="0" fit-margin-bottom="0" inkscape:window-width="1920" inkscape:window-height="1005" inkscape:window-x="-9" inkscape:window-y="-9" inkscape:window-maximized="1" showguides="true" inkscape:guide-bbox="true" inkscape:snap-bbox="true" inkscape:bbox-paths="true" inkscape:bbox-nodes="true" inkscape:snap-bbox-edge-midpoints="true" inkscape:snap-bbox-midpoints="true" inkscape:object-paths="true" inkscape:snap-intersection-paths="true" inkscape:snap-smooth-nodes="true" inkscape:snap-object-midpoints="true" inkscape:snap-center="true" inkscape:snap-global="false"/>
  <metadata id="metadata5">
    <rdf:RDF>
      <cc:Work rdf:about="">
        <dc:format>image/svg+xml</dc:format>
        <dc:type rdf:resource="http://purl.org/dc/dcmitype/StillImage"/>
        <dc:title/>
      </cc:Work>
    </rdf:RDF>
  </metadata>
  <g inkscape:label="Layer 1" inkscape:groupmode="layer" id="layer1" transform="translate(521.78928,-78.677089)">
    <path style="font-style:normal;font-variant:normal;font-weight:normal;font-stretch:normal;font-size:medium;line-height:100%;font-family:'Horev CLM';-inkscape-font-specification:'Horev CLM';letter-spacing:0px;word-spacing:0px;fill:#2c479e;fill-opacity:1;stroke:none;stroke-width:18.13858032px;stroke-linecap:butt;stroke-linejoin:miter;stroke-opacity:1" d="m -345.70008,132.7247 c -2.9747,0 -5.1626,1.38798 -6.22181,3.7685 l -0.4513,-3.27188 h -9.91652 l 6.83847,49.5787 h 9.91651 l -5.1699,-37.4818 c -0.27355,-1.98309 0.54618,-3.27188 2.12606,-3.27188 1.57805,0 2.75787,1.28934 3.03136,3.27188 l 3.80212,27.56527 h -2.58004 l 1.36778,9.91653 h 12.59351 l -5.45707,-39.5639 c -0.88905,-6.44518 -4.72236,-10.51142 -9.87917,-10.51142 z" id="path1057" inkscape:connector-curvature="0"/>
    <path style="font-style:normal;font-variant:normal;font-weight:normal;font-stretch:normal;font-size:medium;line-height:100%;font-family:'Horev CLM';-inkscape-font-specification:'Horev CLM';letter-spacing:0px;word-spacing:0px;fill:#2c479e;fill-opacity:1;stroke:none;stroke-width:18.13858032px;stroke-linecap:butt;stroke-linejoin:miter;stroke-opacity:1" d="m -396.49947,133.22132 1.36759,9.9152 h 0.88832 c 1.39672,0 2.32195,0.29756 2.88734,0.79274 0.55802,0.49519 0.97593,1.28994 1.18097,2.77658 l 7.03005,50.96768 h 9.91651 l -7.30351,-52.95017 c -0.58805,-4.26385 -1.55539,-6.94154 -3.80967,-8.92464 -2.25608,-1.98309 -5.21348,-2.57739 -9.28012,-2.57739 z" id="path1055" inkscape:connector-curvature="0"/>
    <path style="font-style:normal;font-variant:normal;font-weight:normal;font-stretch:normal;font-size:medium;line-height:100%;font-family:'Horev CLM';-inkscape-font-specification:'Horev CLM';letter-spacing:0px;word-spacing:0px;fill:#2c479e;fill-opacity:1;stroke:none;stroke-width:18.13858032px;stroke-linecap:butt;stroke-linejoin:miter;stroke-opacity:1" d="m -379.30952,133.22132 1.36759,9.9152 h 0.88839 c 1.39665,0 2.32112,0.29756 2.88463,0.79274 0.55801,0.49519 0.97591,1.28994 1.18096,2.77658 l 1.5592,11.30418 h 9.91394 l -1.83269,-13.28667 c -0.58803,-4.26385 -1.55598,-6.94154 -3.80836,-8.92464 -2.25607,-1.98309 -5.21402,-2.57739 -9.27875,-2.57739 z" id="path1053" inkscape:connector-curvature="0"/>
    <path style="font-style:normal;font-variant:normal;font-weight:normal;font-stretch:normal;font-size:medium;line-height:100%;font-family:'Horev CLM';-inkscape-font-specification:'Horev CLM';letter-spacing:0px;word-spacing:0px;fill:#2c479e;fill-opacity:1;stroke:none;stroke-width:18.13858032px;stroke-linecap:butt;stroke-linejoin:miter;stroke-opacity:1" d="m -334.35612,133.22132 1.36758,9.9152 h 0.88839 c 1.39665,0 2.32107,0.29756 2.88463,0.79274 0.55803,0.49519 0.97592,1.28994 1.18096,2.77658 l 1.5592,11.30418 h 9.91522 l -1.83268,-13.28667 c -0.58803,-4.26385 -1.55591,-6.94154 -3.80835,-8.92464 -2.25608,-1.98309 -5.21525,-2.57739 -9.28013,-2.57739 z" id="path1051" inkscape:connector-curvature="0"/>
    <path style="font-style:normal;font-variant:normal;font-weight:normal;font-stretch:normal;font-size:medium;line-height:100%;font-family:'Horev CLM';-inkscape-font-specification:'Horev CLM';letter-spacing:0px;word-spacing:0px;fill:#2c479e;fill-opacity:1;stroke:none;stroke-width:18.13858032px;stroke-linecap:butt;stroke-linejoin:miter;stroke-opacity:1" d="m -317.28328,133.22132 1.3676,9.9152 h 9.71728 c 1.6869,0 2.8179,0.29723 3.60656,0.99194 0.78518,0.69469 1.21627,1.58771 1.47598,3.47103 l 4.85529,35.20053 h 9.91128 l -5.25202,-38.07667 c -0.58803,-4.26385 -1.55673,-6.94154 -3.81108,-8.92464 -2.25601,-1.98309 -5.21204,-2.57739 -9.27874,-2.57739 z" id="path1049" inkscape:connector-curvature="0"/>
    <path style="font-style:normal;font-variant:normal;font-weight:normal;font-stretch:normal;font-size:medium;line-height:100%;font-family:'Horev CLM';-inkscape-font-specification:'Horev CLM';letter-spacing:0px;word-spacing:0px;fill:#2c479e;fill-opacity:1;stroke:none;stroke-width:18.13858032px;stroke-linecap:butt;stroke-linejoin:miter;stroke-opacity:1" d="m -314.6982,151.06924 4.37671,31.73078 h 9.91515 l -4.3767,-31.73078 z" id="path1257" inkscape:connector-curvature="0"/>
    <path d="m -347.6809,102.81898 -30.04505,22.9767 c -1.25643,0.96075 -3.0818,0.20042 -3.28433,-1.36858 l -5.60481,-43.428926 c -0.21731,-1.683853 1.58622,-2.88928 3.05879,-2.044131 l 35.64949,20.45222 c 1.27291,0.730097 1.39115,2.521367 0.22591,3.412717" style="fill:#2c479e;fill-opacity:1;fill-rule:nonzero;stroke:none;stroke-width:0.35277778" id="path947" inkscape:connector-curvature="0"/>
    <path style="font-style:normal;font-variant:normal;font-weight:normal;font-stretch:normal;font-size:medium;line-height:100%;font-family:'Horev CLM';-inkscape-font-specification:'Horev CLM';letter-spacing:0px;word-spacing:0px;fill:#29aae3;fill-opacity:1;stroke:none;stroke-width:18.13858032px;stroke-linecap:butt;stroke-linejoin:miter;stroke-opacity:1" d="m -521.78928,132.76177 4.1045,33.11046 c 0.76193,6.14626 2.11223,9.8142 5.36808,12.68913 3.25394,2.87478 7.35783,3.76716 13.2517,3.76718 h 3.79503 c 5.89202,0 9.87796,-0.8924 12.4174,-3.76718 2.53936,-2.87493 2.88432,-6.54287 2.12239,-12.68913 l -4.1045,-33.11046 h -9.98824 l 4.11686,33.21005 c 0.34407,2.77574 0.10277,4.06383 -0.76094,5.05521 -0.88188,0.99193 -2.3259,1.38762 -4.8234,1.38762 h -5.19203 c -2.09733,0 -3.44553,-0.39733 -4.34223,-1.18979 -0.6766,-0.59477 -1.40244,-1.58722 -1.61127,-3.27186 l -0.13075,-0.99059 c 1.88343,1.48698 3.82859,1.88293 5.4254,1.88293 5.09364,0 7.78742,-4.06433 7.01322,-10.3096 l -3.19507,-25.77397 h -9.98824 l 3.21973,25.97315 c 0.15981,1.28931 -0.3442,2.08078 -1.44042,2.08078 -1.09615,0 -1.88941,-0.79147 -2.04921,-2.08078 l -3.21974,-25.97315 z" id="path1245" inkscape:connector-curvature="0"/>
    <path style="font-style:normal;font-variant:normal;font-weight:normal;font-stretch:normal;font-size:medium;line-height:100%;font-family:'Horev CLM';-inkscape-font-specification:'Horev CLM';letter-spacing:0px;word-spacing:0px;fill:#29aae3;fill-opacity:1;stroke:none;stroke-width:18.13858032px;stroke-linecap:butt;stroke-linejoin:miter;stroke-opacity:1" d="m -482.0825,132.76177 1.22894,9.91388 h 13.08212 c -1.31374,1.48698 -1.60522,3.96432 -1.12595,7.83046 l 3.94485,31.82243 h 9.98824 l -4.91555,-39.65289 h 3.29574 l -1.22894,-9.91388 z" id="path1243" inkscape:connector-curvature="0"/>
    <path style="font-style:normal;font-variant:normal;font-weight:normal;font-stretch:normal;font-size:medium;line-height:100%;font-family:'Horev CLM';-inkscape-font-specification:'Horev CLM';letter-spacing:0px;word-spacing:0px;fill:#29aae3;fill-opacity:1;stroke:none;stroke-width:18.13858032px;stroke-linecap:butt;stroke-linejoin:miter;stroke-opacity:1" d="m -454.93797,132.76177 1.22886,9.91256 h 4.1948 c -1.31382,1.48697 -1.70617,3.96524 -1.2392,7.73219 l 1.6e-4,9.9e-4 3.95702,31.92069 h 9.98825 l -4.91556,-39.65291 h 1.29598 c 1.40685,0 2.33448,0.29636 2.8946,0.79142 0.55467,0.49505 0.96335,1.29033 1.14764,2.77658 l 4.47305,36.08354 h 9.98688 l -4.71883,-38.06605 c -0.52842,-4.26273 -1.46431,-6.9394 -3.7033,-8.92197 -2.24272,-1.98257 -5.21356,-2.57741 -9.30787,-2.57741 h -13.28404 z" id="path1241" inkscape:connector-curvature="0"/>
    <path style="font-style:normal;font-variant:normal;font-weight:normal;font-stretch:normal;font-size:medium;line-height:100%;font-family:'Horev CLM';-inkscape-font-specification:'Horev CLM';letter-spacing:0px;word-spacing:0px;fill:#29aae3;fill-opacity:1;stroke:none;stroke-width:18.13858032px;stroke-linecap:butt;stroke-linejoin:miter;stroke-opacity:1" d="m -424.60805,132.76177 1.22895,9.91388 h 9.78775 c 1.69912,0 2.83345,0.29741 3.61928,0.99193 0.78037,0.69452 1.20187,1.58688 1.43531,3.46972 l 4.36244,35.19124 h 9.98029 l -4.719,-38.0674 c -0.5284,-4.26272 -1.46301,-6.9394 -3.70193,-8.92198 -2.24455,-1.98256 -5.21362,-2.57739 -9.30787,-2.57739 z" id="path1239" inkscape:connector-curvature="0"/>
    <path style="font-style:normal;font-variant:normal;font-weight:normal;font-stretch:normal;font-size:medium;line-height:100%;font-family:'Horev CLM';-inkscape-font-specification:'Horev CLM';letter-spacing:0px;word-spacing:0px;fill:#29aae3;fill-opacity:1;stroke:none;stroke-width:18.13858032px;stroke-linecap:butt;stroke-linejoin:miter;stroke-opacity:1" d="m -422.54518,150.6057 3.93253,31.72284 h 9.98831 l -3.93255,-31.72284 z" id="path993" inkscape:connector-curvature="0"/>
    <path d="m -364.19166,102.84107 -30.04505,22.97669 c -1.25643,0.96076 -3.0818,0.20044 -3.28433,-1.36857 l -5.60481,-43.428921 c -0.21731,-1.683853 1.58622,-2.888927 3.05879,-2.044131 l 35.64949,20.45222 c 1.27291,0.730452 1.39115,2.521372 0.22591,3.412712" style="fill:#29aae3;fill-opacity:1;fill-rule:nonzero;stroke:none;stroke-width:0.35277778" id="path931" inkscape:connector-curvature="0"/>
  </g>
</svg>